<?xml version="1.0" encoding="utf-8"?>
<!-- Generator: Adobe Illustrator 24.2.1, SVG Export Plug-In . SVG Version: 6.00 Build 0)  -->
<svg version="1.1" id="Ebene_1" xmlns="http://www.w3.org/2000/svg" xmlns:xlink="http://www.w3.org/1999/xlink" x="0px" y="0px"
	 viewBox="0 0 320 320" style="enable-background:new 0 0 320 320;" xml:space="preserve">
<style type="text/css">
	.st0{fill-rule:evenodd;clip-rule:evenodd;fill:none;}
</style>
<path class="st0" d="M139,0c14.67,0,29.33,0,44,0c6.18,18.84,35.3,24.16,35,47c-11,1-22,2-33,3c-22,8.33-44,16.67-66,25
	c-13.37,5.96-23.44,21.18-37,25c-14.81-32.64-6.73-71.88,17-85C105.84,11.22,135.93,4.57,139,0z"/>
<path class="st0" d="M264,60c3.67,0.67,7.33,1.33,11,2c0,1.67,0,3.33,0,5c-13,7.33-26,14.67-39,22c-38.16,23.43-76.97,46.33-122,61
	c-17.23,5.61-43.91,20.32-66,15c0-1.33,0-2.67,0-4c12-8.67,24-17.33,36-26c31.33-14.67,62.67-29.33,94-44
	C195.18,83.65,253.81,69.69,264,60z"/>
<path class="st0" d="M158,70c13.19,1.05,31.98-3.51,35,8c-13.67,5.67-27.33,11.33-41,17c-18.42,9.06-41.24,27.22-63,30c-1-1-2-2-3-3
	C83.14,86.59,131.98,83.21,158,70z"/>
<path class="st0" d="M239,96c1,0,2,0,3,0c1,0.67,2,1.33,3,2c0,14.33,0,28.67,0,43c-2.67,3.67-5.33,7.33-8,11
	c-1.55,9.42,5.55,23.12,3,36c-4.7,23.71-27.8,65.73-59,58c0-1,0-2,0-3c1.67-2,3.33-4,5-6c-4.84-4.82-7.66-12.8-9-21
	c0.33-0.33,0.67-0.67,1-1c12.77,0.23,25.8-7.72,27-19c-0.67,0-1.33,0-2,0c-6.75-1.48-21.15,2.91-27,6c-3.57-2.74-4.02-6.8-6-11
	c-6.16-0.62-9.98,1.07-12-5c3.67-5,7.33-10,11-15c4.26-15.81-7-24.14-1-35c20.99-6.39,37.67-27.62,60-31c1,2.67,2,5.33,3,8
	c1.33,0,2.67,0,4,0c0.33-0.33,0.67-0.67,1-1C235.79,104.71,236.73,100.27,239,96z"/>
<path class="st0" d="M195,130c-7.67,4.72-14.84,6.79-20,14c0.33,0.67,0.67,1.33,1,2c0.67,1,1.33,2,2,3c10.66-1.71,18.5-8.01,31-11
	c0.33-1.67,0.67-3.33,1-5c-0.67-1-1.33-2-2-3C203.67,130,199.33,130,195,130z"/>
<path class="st0" d="M248,219c7.26,3.45,9.86,12.43,15,18c-3,12.33-6,24.67-9,37c-1.33,0.67-2.67,1.33-4,2c-0.67-0.33-1.33-0.67-2-1
	c-2.29-10.13-7.03-12.77-15-17c0-1,0-2,0-3C246.24,245.23,244.21,236.6,248,219z"/>
<path class="st0" d="M136,226c11,8,22,16,33,24c12,4,24,8,36,12c-5,18.33-10,36.67-15,55c-2-0.67-4-1.33-6-2
	C174.16,293.37,125.96,255.4,136,226z"/>
<path class="st0" d="M215,263c4.33,0.33,8.67,0.67,13,1c11.65,4.62,16.49,19.89,9,32c-11.33,0.75-10.25,6.3-20,8
	c-3.67-4-7.33-8-11-12C207.1,282.46,209.59,268.73,215,263z"/>
</svg>
